<svg xmlns="http://www.w3.org/2000/svg" viewBox="0 0 1456.4 621.4"><defs><style>.cls-1{isolation:isolate;}.cls-2{fill:#346795;}.cls-3{fill:#69c;}.cls-4,.cls-5{fill:#4e6f87;}.cls-4{opacity:0.4;}.cls-4,.cls-5,.cls-6{mix-blend-mode:screen;}.cls-6{fill:#9fc8e2;}</style></defs><g class="cls-1"><g id="Layer_2" data-name="Layer 2"><polygon class="cls-2" points="890.17 498.81 890.53 496.92 894.44 496.92 894.98 497.09 900.84 500.99 899.93 502.72 890.17 498.81"></polygon><polygon class="cls-2" points="890.17 498.81 890.53 496.92 894.44 496.92 894.98 497.09 900.84 500.99 899.93 502.72 890.17 498.81"></polygon><path class="cls-2" d="M768.21,70.56V48.94l1.12-.88,45.06,10.81v1.76L769.33,71.45ZM770,50.09V69.42l40.28-9.67Z"></path><path class="cls-2" d="M698.54,48l.25-1.76,45.06-1.8.67.26,25.24,25.24-.93,1.49Zm45-1.74-39.71,1.59,62,20.65Z"></path><polygon class="cls-2" points="743.24 45.97 743.88 44.43 745.69 44.43 746.35 44.72 769.78 69.95 768.48 71.2 743.24 45.97"></polygon><path class="cls-2" d="M745,46l.81-1.51L769.26,48l.76.9V70.56l-1.57.62Zm23.19,3.76-20.09-3.09,20.09,21.64Z"></path><path class="cls-2" d="M813.42,60.25l1.08-1.34,23.43,9,.58.84v27l-1.66.49Zm23.28,9.13L816.46,61.6,836.7,92.75Z"></path><path class="cls-2" d="M768.81,71.41l.1-1.72L814,58.87l1,.39,23.43,36-1.07,1.35Zm45-10.63-41.54,10L835.36,94Z"></path><path class="cls-2" d="M836.7,95.8v-27l1.39-.76,68.5,43.26-.69,1.64L837.4,96.68Zm1.81-25.4V95.09L901,109.89Z"></path><path class="cls-2" d="M554.13,107.66l54.07-36,1.35.44,27,73.9-1.23,1.13-81.1-37.85Zm54.11-33.9-51.77,34.52,77.66,36.24Z"></path><path class="cls-2" d="M607.85,72.68l.52-1.15L649.83,55.3l1.22,1-14.42,90.12-1.74.17ZM649,57.57,609.85,72.89l25.54,69.8Z"></path><path class="cls-2" d="M634.84,146.13,649.26,56l.68-.73,7.2-1.8,1.1,1.08-21.62,91.93ZM651,56.88l-10.38,64.85,15.56-66.15Z"></path><polygon class="cls-2" points="634.96 145.79 696.25 46.66 697.02 46.23 698.82 46.23 699.59 47.62 636.5 146.75 634.96 145.79"></polygon><path class="cls-2" d="M634.85,146.06l21.63-91.92.72-.68,39.66-7.22.93,1.37-61.28,99.14Zm23.26-90.93-20.22,85.93,57.29-92.67Z"></path><path class="cls-2" d="M866.3,149l64.89-10.81.79.25,1.8,1.8-.52,1.54-66.69,9ZM931,140l-6.44,1.07,6.62-.89Z"></path><path class="cls-2" d="M836.81,96.22l1-1.3,68.49,16.22.42,1.54-39.65,37.85-1.43-.23Zm67.46,16.3L839.35,97.14l27.34,51.26Z"></path><path class="cls-2" d="M865.82,149.22l39.66-37.85,1.29,0,25.23,27-.51,1.51L866.6,150.77Zm40.25-35.91L869.2,148.5l60.32-10.06Z"></path><path class="cls-2" d="M766.41,153.46l1.8-82.92,1.22-.82L837.92,95l.26,1.55-70.29,57.68ZM770,71.85l-1.74,79.68L835.81,96.1Z"></path><path class="cls-2" d="M766.74,152.78,837,95.1l1.37.28,28.84,54.07-.77,1.33-99.13,3.61ZM837.33,97.2,770,152.48,865,149Z"></path><path class="cls-2" d="M698.06,47.63l1.05-1.35L769.4,69.71l.62.88-1.8,82.91-1.66.47ZM768.2,71.21,701,48.81,766.47,150.5Z"></path><path class="cls-2" d="M635,145.78l63.09-99.13h1.52L768.08,153l-.81,1.4-131.58-7.22Zm63.86-97-61.5,96.64,128.26,7Z"></path><path class="cls-2" d="M490.76,181.85l10.81-18,1-.41,111.75,28.83L614,194,491.46,183.22Zm12-16.51-9.72,16.2,110.19,9.72Z"></path><path class="cls-2" d="M501.62,163.76,516,143.93l1.14-.27,97.33,48.66-.63,1.69L502.12,165.17Zm15.43-18.14-13.19,18.13,102.2,26.37Z"></path><path class="cls-2" d="M516.14,143.83,545,115l1.31,0,68.5,77.51-1.09,1.41-97.33-48.67ZM545.57,117,518.3,144.22l92,46Z"></path><path class="cls-2" d="M544.94,116.23l.11-1.31,9-7.21,1.31.19,59.48,84.71-1.42,1.12Zm9.5-6.51-7.52,6,57.14,64.65Z"></path><path class="cls-2" d="M553.89,108.94,555,107.6l81.11,37.85.43,1.2-21.62,46.86-1.57.14Zm80.65,37.77-77.22-36,56.62,80.65Z"></path><path class="cls-2" d="M485.3,194.58,490.71,182l.91-.54,122.57,10.81-.07,1.81-128,1.8Zm6.81-11.31L487.51,194l108.87-1.53Z"></path><path class="cls-2" d="M947.22,224.74l30.64-12.62,1.25.84v5.41l-.7.88-30.64,7.21Zm30.08-10.43-18.92,7.79,18.92-4.45Z"></path><path class="cls-2" d="M865.83,150.53l.5-1.55L933,140l1,.75,14.42,84.72-1.51.81Zm66.57-8.66-63.94,8.64,77.76,72.58Z"></path><path class="cls-2" d="M932.25,141l1.66-.63L979,212.48l-.42,1.32L947.9,226.41l-1.23-.68Zm44.62,71.52-42.07-67.3,13.47,79.08Z"></path><path class="cls-2" d="M635.17,147l.61-1.61,131.59,7.22.78,1.25-30.64,73.9-1.4.36ZM766,154.31l-127.49-7,97.8,78.59Z"></path><path class="cls-2" d="M613.29,192.75l21.62-46.86,1.39-.33,100.94,81.11-.81,1.58L613.86,194Zm22.78-45.05-20.7,44.84,117.29,32.78Z"></path><path class="cls-2" d="M947.29,226.44l.06-1.74L978,217.48l1,.51,9,19.83-1.1,1.24Zm30.4-7L951,225.71l34.59,11Z"></path><polygon class="cls-2" points="977.3 218.37 977.3 212.96 979.06 212.66 988.07 237.89 986.39 238.57 977.3 218.37"></polygon><path class="cls-2" d="M766.44,153.69l.84-1.11L866.42,149l.73,1.48-77.51,93.73-1.58-.37Zm98-2.84-96,3.49,20.95,87.29Z"></path><path class="cls-2" d="M735.84,227l30.64-73.9,1.72.14,21.62,90.12-1.15,1.07L736.4,228.24Zm31.25-70.63-29.2,70.41,49.8,15.45Z"></path><path class="cls-2" d="M947.17,226.39l.67-1.68,39.65,12.62.6.65,1.8,7.2-1.26,1Zm39.29,12.51-26.7-8.49,27.91,13.35Z"></path><path class="cls-2" d="M865.56,150l1.51-.83,81.11,75.71-.22,1.47L886.68,257l-1.29-.64ZM946,225.35l-78.15-72.94L887,254.87Z"></path><path class="cls-2" d="M463.65,255.92l21.63-61.29.84-.6,128-1.8.37,1.74L464.85,257.05Zm23.13-60.09L466,254.59,609.48,194.1Z"></path><path class="cls-2" d="M788.25,243l77.5-93.72,1.59.75L843.91,267.21l-1.25.65-54.08-23.43Zm76.61-89.8-74.45,90,51.94,22.5Z"></path><path class="cls-2" d="M842.13,266.85,865.56,149.7h1.78l19.83,106.34-.67,1.05-43.26,10.81Zm24.29-112.21L844.18,265.81l41.05-10.26Z"></path><path class="cls-2" d="M946.76,226l1.19-1.23,41.45,19.83.44,1.18-14.41,32.45-1.63,0Zm41.07,19.85-38.22-18.28,24.93,48.2Z"></path><path class="cls-2" d="M973.77,277.48,988.19,245l1.72.2,3.6,19.83-.37.9-18,12.62Zm14.88-29-11.9,26.79,14.88-10.42Z"></path><path class="cls-2" d="M974.08,277.11l18-12.62,1.4.52,3.6,14.42-1,1.12-21.62-1.8Zm18-10.38-14.89,10.43L995,278.64Z"></path><path class="cls-2" d="M885.45,256.6l.43-1.19,61.28-30.64,1.17,1.28-43.26,70.3-1.59-.1Zm59.68-28.79-57.67,28.83,17,37.31Z"></path><path class="cls-2" d="M903.53,295.4l43.26-70.3,1.57.06,27,52.27-.57,1.3-70.3,18Zm44-68-41.24,67,67-17.18Z"></path><path class="cls-2" d="M842.63,267.85l.17-1.7,43.26-10.81,1,.51,18,39.65-1.2,1.19Zm43.14-10.57-40.07,10L902.46,294Z"></path><path class="cls-2" d="M735.85,227.75l1.09-1.23,52.27,16.22.59,1.16L770,299.78l-1.68.07Zm51.93,16.44-49.46-15.35L769,297.05Z"></path><path class="cls-2" d="M768.27,299.17l19.82-55.87,1.21-.53,54.08,23.43v1.66l-73.9,32.44Zm21.2-54.35-18.8,53L840.76,267Z"></path><path class="cls-2" d="M974,278.51l.69-1.56,21.63,1.8.83.82,1.8,19.83-1.51.74Zm21.42,2L977.15,279l19.77,18.25Z"></path><path class="cls-2" d="M842.39,267.68l1-1.47,61.29,28.84.45,1.17-9,21.63-1.46.3Zm60.74,28.64-55.55-26.14L895,315.93Z"></path><path class="cls-2" d="M768.75,298.65l73.9-32.45,1,.18,52.27,50.47-.76,1.54L769,300.37Zm74.08-30.55L772.39,299l120.26,17.18Z"></path><path class="cls-2" d="M613.39,193.68l1-1.42,122.57,34.25.62,1.15-28.85,90.12-1.58.26ZM735.52,228,616.44,194.72,707.5,315.56Z"></path><path class="cls-2" d="M707,317.22l28.84-90.12,1.69-.09,32.44,72.1-.57,1.24-61.28,18Zm29.84-87.32-27.6,86.25,58.66-17.25Z"></path><path class="cls-2" d="M973.77,278.22l1.44-1,23.44,21.63.29.67v30.64l-1.74.37Zm23.36,21.65-19.9-18.36,19.9,44.38Z"></path><path class="cls-2" d="M904,296.72l.09-1.73,70.29-18,1.06.51,23.43,52.27L997.72,331Zm70.1-17.8L907.35,296l89,32.51Z"></path><path class="cls-2" d="M894.46,317.15l9-21.63,1.14-.5,93.73,34.25-.42,1.75L895.18,318.4ZM904.8,297l-8.22,19.73,93.72,11.51Z"></path><path class="cls-2" d="M613.24,193.39l1.59-.8L708.55,317l-.22,1.3L661.46,348.9l-1.36-.5Zm93.29,123.88L616.44,197.74l45,149Z"></path><path class="cls-2" d="M458.22,275.81,463.63,256l1.65-.23,55.87,91.92-1.46,1.06-61.29-72.1Zm6.6-17.32-4.73,17.33,53.59,63.05Z"></path><path class="cls-2" d="M463.73,256.69l.42-1.3L613.76,192.3l1.12,1.3-93.73,155h-1.54Zm148.16-61.64-146.07,61.6,54.56,89.75Z"></path><path class="cls-2" d="M519.61,347.68l93.72-155,1.64.21,46.87,155-.87,1.17H520.38Zm94.22-152.34L522,347.24H659.75Z"></path><path class="cls-2" d="M458.19,344.54V276.05l1.59-.59,61.29,72.1-.74,1.49L459,345.44Zm1.81-66v65.18l58.32,3.42Z"></path><path class="cls-2" d="M895,318.34l.43-1.74,102.74,12.62.79,1-3.61,25.23-1.22.72Zm102,12.57L902.55,319.3l91.14,34.81Z"></path><path class="cls-2" d="M894.86,318.3l.75-1.64,99.14,37.85.57,1-1.8,14.41-1.33.69ZM993.44,356l-85.29-32.57,83.74,45Z"></path><path class="cls-2" d="M458.2,344.66l.95-1,61.28,3.61.42,1.67L465,383.16l-1.37-.64Zm59.25,4.22-57.3-3.37,5.05,35.39Z"></path><path class="cls-2" d="M463.64,382.67l.39-1.05,55.88-34.25,1,1.5-54.07,39.66-1.39-.45Zm38.61-22.35-36.66,22.46,1.18,3.55Z"></path><path class="cls-2" d="M894.73,318.21l1-1.51L993.05,369l.44,1-5.4,19.83-1.43.47Zm96.83,52-87.46-47L986.7,388Z"></path><path class="cls-2" d="M707.05,318l.53-1.33,61.28-18,1.15,1-18,91.93-1.67.28Zm60.89-17.19L709.2,318l41.47,70.84Z"></path><path class="cls-2" d="M660.47,347.39l46.87-30.65,1.27.3L751.88,391l-1.18,1.27L660.58,349Zm47.06-28.61L662.81,348l86,41.29Z"></path><path class="cls-2" d="M768.21,299.52l1-.94,126.17,18,.43,1.6L775.08,411.94l-1.46-.67Zm124.84,18.57-123-17.56,5.27,108.92Z"></path><path class="cls-2" d="M750.21,391.23l18-91.93,1.79.14,5.41,111.75-1.49.73-23.43-19.83ZM768.57,307l-16.48,84.1,21.43,18.13Z"></path><path class="cls-2" d="M465.45,388.1l.32-1,54.08-39.66,1.3,1.21-43.26,70.29-1.62-.17Zm51.74-36.49-49.81,36.52,10,28.22Z"></path><path class="cls-2" d="M894.38,317.52l1.47-.73,91.92,72.1-.28,1.57L897.37,419.3l-1.18-.85Zm90.93,71.74-89.08-69.87L898,417.2Z"></path><path class="cls-2" d="M774,410.51l120.77-93.72,1.45.69L898,418.42l-1,.92-122.57-7.21Zm120.45-91.19L777,410.47l119.19,7Z"></path><path class="cls-2" d="M519.69,348.73l.69-1.49H661l.7,1.47-68.49,84.72h-1.39Zm139.38.32H522.34l70.12,82.39Z"></path><path class="cls-2" d="M634.87,432.6l25.23-84.71,1.26-.56,90.13,43.26-.09,1.67L636,433.71Zm26.66-83.18-24.42,82,111.65-40.12Z"></path><path class="cls-2" d="M591.77,432.29l68.5-84.72,1.57.83L636.6,433.12l-.87.64H592.48Zm67-80L594.37,432h40.69Z"></path><path class="cls-2" d="M476.3,418.81l.05-.85,43.26-70.29,1.62.79L487,438.59l-1.67.05Zm39.84-62-38,61.73,7.91,17.41Z"></path><path class="cls-2" d="M485.29,437.94l34.25-90.12,1.53-.26,72.1,84.71-.65,1.49-106.34,5.41Zm35.39-88-33.21,87.39,103.13-5.24Z"></path><path class="cls-2" d="M774.1,412l.48-1.7,122.57,7.21.36,1.71-55.88,28.84h-.85Zm119.64,7.13-115.2-6.78,62.69,33.88Z"></path><path class="cls-2" d="M840.8,446.47l55.88-28.84,1.2,1.26-7.21,12.62-.5.41L841.5,448.14Zm54-25.83L852,442.73l37.27-12.42Z"></path><path class="cls-2" d="M896.71,419.25l.11-1.68,90.12-28.83,1.11,1.21-25.23,59.48-1.22.47Zm88.9-28.19L899.56,418.6l62,29.26Z"></path><path class="cls-2" d="M889.1,430.61,896.31,418l1.29-.31,59.47,39.66-.84,1.59-66.69-27Zm8.3-10.88-6.22,10.88,57.5,23.3Z"></path><path class="cls-2" d="M896.59,419.19l.89-1.57,64.89,30.64.39,1.29-5.41,9-1.28.28Zm64.1,30.28-52.86-25,48.46,32.3Z"></path><polygon class="cls-2" points="955.79 457.63 961.21 448.61 962.82 449.42 959.22 458.43 958.38 459 956.57 459 955.79 457.63"></polygon><path class="cls-2" d="M755.64,474.07l18-63.09,1.3-.55,66.69,36.05-.16,1.66-84.71,27Zm19.45-61.51-17.25,60.38,81.07-25.88Z"></path><path class="cls-2" d="M750.19,391.46l1.49-.75,23.43,19.83.29.94-18,63.08-1.77-.18Zm23.3,20.08-21.35-18.07,4.93,75.58Z"></path><path class="cls-2" d="M635.43,432l115.36-41.46,1.21.79,5.41,82.91-1.2.92L635.44,433.71Zm114.84-39.35L638.46,432.84,755.52,473Z"></path><polygon class="cls-2" points="935.99 488.24 955.81 457.6 956.57 457.19 958.38 457.19 959.11 458.62 937.49 489.26 935.99 488.24"></polygon><path class="cls-2" d="M889.18,431.63l1-1.41,66.69,27,.42,1.33-19.82,30.65-1.47.07Zm66,26.89-62.41-25.3,43.85,54Z"></path><path class="cls-2" d="M889.08,431.47l1.5-1,46.87,57.68,0,1.16-10.81,12.61-1.49-.17Zm46.49,57.25-40.93-50.38,31.48,61.4Z"></path><path class="cls-2" d="M836.7,504.9l3.61-57.68.62-.8,48.66-16.22,1,1.38-52.27,73.9Zm5.38-57-3.37,53.89,48.84-69Z"></path><path class="cls-2" d="M836.87,504.43l52.27-73.9,1.55.11,36,70.3-.77,1.32-88.33,3.6Zm52.89-71.63L839.41,504l85.07-3.47Z"></path><path class="cls-2" d="M485.39,438.79l.7-1.43L592.43,432l.74,1.48-59.48,72.1-1.43,0Zm105.08-4.93-102.66,5.23,45.24,64.38Z"></path><path class="cls-2" d="M532.3,504.38l59.48-72.1,1.44,1.09-54.07,77.51-1.39.12-5.41-5.4Zm46.6-53.64L534.22,504.9l4.06,4.06Z"></path><path class="cls-2" d="M756.09,475.12l.14-1.67,84.71-27,1.16,1.07-14.42,63.08-1.29.61ZM840,448.62l-81.11,25.89L826.18,509Z"></path><path class="cls-2" d="M825.92,510.16l14.41-63.08,1.79.25L838.51,505l-.5.76-10.81,5.4Zm13.7-51.83L828.11,508.7l8.63-4.32Z"></path><path class="cls-2" d="M755.68,474.68l1.24-1.17,70.29,36.05-.25,1.69-50.47,9-1-.53ZM824,509.94l-65.64-33.66,18.51,42.08Z"></path><path class="cls-2" d="M537.66,509.85l54.08-77.51,1.58.84-36.05,93.73-1.45.35L537.8,511ZM589,439.48,539.6,510.23,556.05,525Z"></path><path class="cls-2" d="M837.08,505.69l.49-1.64,88.33-3.6.61,1.6L883.25,538.1l-1.11,0Zm86.22-3.32-83,3.39,42.37,30.5Z"></path><path class="cls-2" d="M826.33,511.14l.07-1.59,10.81-5.4,1,.14,39.66,36.05-1.08,1.44Zm11.13-5.1-8.79,4.4,41,24.92Z"></path><path class="cls-2" d="M837,505.63l1.14-1.41,45.06,32.45,0,1.48-5.41,3.61-1.11-.09Zm44.09,31.74L850,515l27.37,24.88Z"></path><path class="cls-2" d="M775.49,519.71l.68-1.23,50.47-9,1,1.29-29.74,60.39-1.65-.06Zm49.71-8.14-47.61,8.5,19.55,48.46Z"></path><path class="cls-2" d="M796.24,570.35,826,510l1.28-.37,50.47,30.64-.16,1.63L797.37,571.6Zm30.93-58.7-28.3,57.46,76.33-28.3Z"></path><polygon class="cls-2" points="755.67 474.67 757.33 473.95 777.16 519.01 797.89 570.41 796.22 571.1 755.67 474.67"></polygon><path class="cls-2" d="M591.57,432.9l.91-.95h43.25l.87,1.18L598.75,553.9l-1.77-.24Zm42.93.86H593.43l5.13,114.69Z"></path><path class="cls-2" d="M555.58,526.26l36-93.73,1.75.29,5.41,120.76-1.4.8-41.46-27Zm36.19-89-34.24,89L596.9,551.9Z"></path><path class="cls-2" d="M597,553.35l37.85-120.76,1.76.42L615,561l-1.26.68-16.22-7.21Zm35.61-107.57L599,553.13l14.42,6.4Z"></path><path class="cls-2" d="M634.91,433.23,636,432,756.8,473.46l.44,1.38-63.09,88.32-1.56-.16Zm120.15,41.55L637.41,434.39,693.6,560.82Z"></path><path class="cls-2" d="M692.68,562.11l63.09-88.32,1.57.17,40.55,96.44-.9,1.25-103.65-8.11Zm63.62-85.95-61.22,85.7,100.57,7.87Z"></path><polygon class="cls-2" points="613.64 561.61 614.46 560 627.08 565.41 626.73 567.15 623.12 567.15 622.65 567.02 613.64 561.61"></polygon><path class="cls-2" d="M613.22,560.68l21.62-128,1.8.21-9,133.38-1.26.77-12.62-5.41Zm20.39-109.84L615.12,560.28l10.79,4.62Z"></path><path class="cls-2" d="M625.83,566.18l9-133.38,1.73-.31,57.68,129.78-.78,1.27-66.68,3.61Zm10.56-129.62L627.7,565.28l64.35-3.48Z"></path><path class="cls-2" d="M626.22,567l.46-1.65,66.69-3.61.15,1.8-61.28,7.21-.61-.14Zm38.6-1.9L629.5,567l2.86,1.91Z"></path><path class="cls-2" d="M692.58,563l.91-1.25,103.64,8.12,0,1.79-94.62,13.52-1-.55Zm96.24,8-94-7.36L703,583.27Z"></path><path class="cls-2" d="M631.92,570.72,632,569l61.28-7.21,1,1-1.81,21.63-1.11.81Zm60.5-7.06-55.17,6.49,53.55,13Z"></path><path class="cls-2" d="M768.21,70.56V48.94l1.12-.88,45.06,10.81v1.76L769.33,71.45ZM770,50.09V69.42l40.28-9.67Z"></path><path class="cls-2" d="M698.54,48l.25-1.76,45.06-1.8.67.26,25.24,25.24-.93,1.49Zm45-1.74-39.71,1.59,62,20.65Z"></path><polygon class="cls-2" points="743.24 45.97 743.88 44.43 745.69 44.43 746.35 44.72 769.78 69.95 768.48 71.2 743.24 45.97"></polygon><path class="cls-2" d="M745,46l.81-1.51L769.26,48l.76.9V70.56l-1.57.62Zm23.19,3.76-20.09-3.09,20.09,21.64Z"></path><path class="cls-2" d="M813.42,60.25l1.08-1.34,23.43,9,.58.84v27l-1.66.49Zm23.28,9.13L816.46,61.6,836.7,92.75Z"></path><path class="cls-2" d="M768.81,71.41l.1-1.72L814,58.87l1,.39,23.43,36-1.07,1.35Zm45-10.63-41.54,10L835.36,94Z"></path><path class="cls-2" d="M836.7,95.8v-27l1.39-.76,68.5,43.26-.69,1.64L837.4,96.68Zm1.81-25.4V95.09L901,109.89Z"></path><path class="cls-2" d="M554.13,107.66l54.07-36,1.35.44,27,73.9-1.23,1.13-81.1-37.85Zm54.11-33.9-51.77,34.52,77.66,36.24Z"></path><path class="cls-2" d="M607.85,72.68l.52-1.15L649.83,55.3l1.22,1-14.42,90.12-1.74.17ZM649,57.57,609.85,72.89l25.54,69.8Z"></path><path class="cls-2" d="M634.84,146.13,649.26,56l.68-.73,7.2-1.8,1.1,1.08-21.62,91.93ZM651,56.88l-10.38,64.85,15.56-66.15Z"></path><polygon class="cls-2" points="634.96 145.79 696.25 46.66 697.02 46.23 698.82 46.23 699.59 47.62 636.5 146.75 634.96 145.79"></polygon><path class="cls-2" d="M634.85,146.06l21.63-91.92.72-.68,39.66-7.22.93,1.37-61.28,99.14Zm23.26-90.93-20.22,85.93,57.29-92.67Z"></path><path class="cls-2" d="M866.3,149l64.89-10.81.79.25,1.8,1.8-.52,1.54-66.69,9ZM931,140l-6.44,1.07,6.62-.89Z"></path><path class="cls-2" d="M836.81,96.22l1-1.3,68.49,16.22.42,1.54-39.65,37.85-1.43-.23Zm67.46,16.3L839.35,97.14l27.34,51.26Z"></path><path class="cls-2" d="M865.82,149.22l39.66-37.85,1.29,0,25.23,27-.51,1.51L866.6,150.77Zm40.25-35.91L869.2,148.5l60.32-10.06Z"></path><path class="cls-2" d="M766.41,153.46l1.8-82.92,1.22-.82L837.92,95l.26,1.55-70.29,57.68ZM770,71.85l-1.74,79.68L835.81,96.1Z"></path><path class="cls-2" d="M766.74,152.78,837,95.1l1.37.28,28.84,54.07-.77,1.33-99.13,3.61ZM837.33,97.2,770,152.48,865,149Z"></path><path class="cls-2" d="M698.06,47.63l1.05-1.35L769.4,69.71l.62.88-1.8,82.91-1.66.47ZM768.2,71.21,701,48.81,766.47,150.5Z"></path><path class="cls-2" d="M635,145.78l63.09-99.13h1.52L768.08,153l-.81,1.4-131.58-7.22Zm63.86-97-61.5,96.64,128.26,7Z"></path><path class="cls-2" d="M490.76,181.85l10.81-18,1-.41,111.75,28.83L614,194,491.46,183.22Zm12-16.51-9.72,16.2,110.19,9.72Z"></path><path class="cls-2" d="M501.62,163.76,516,143.93l1.14-.27,97.33,48.66-.63,1.69L502.12,165.17Zm15.43-18.14-13.19,18.13,102.2,26.37Z"></path><path class="cls-2" d="M516.14,143.83,545,115l1.31,0,68.5,77.51-1.09,1.41-97.33-48.67ZM545.57,117,518.3,144.22l92,46Z"></path><path class="cls-2" d="M544.94,116.23l.11-1.31,9-7.21,1.31.19,59.48,84.71-1.42,1.12Zm9.5-6.51-7.52,6,57.14,64.65Z"></path><path class="cls-2" d="M553.89,108.94,555,107.6l81.11,37.85.43,1.2-21.62,46.86-1.57.14Zm80.65,37.77-77.22-36,56.62,80.65Z"></path><path class="cls-2" d="M485.3,194.58,490.71,182l.91-.54,122.57,10.81-.07,1.81-128,1.8Zm6.81-11.31L487.51,194l108.87-1.53Z"></path><path class="cls-2" d="M947.22,224.74l30.64-12.62,1.25.84v5.41l-.7.88-30.64,7.21Zm30.08-10.43-18.92,7.79,18.92-4.45Z"></path><path class="cls-2" d="M865.83,150.53l.5-1.55L933,140l1,.75,14.42,84.72-1.51.81Zm66.57-8.66-63.94,8.64,77.76,72.58Z"></path><path class="cls-2" d="M932.25,141l1.66-.63L979,212.48l-.42,1.32L947.9,226.41l-1.23-.68Zm44.62,71.52-42.07-67.3,13.47,79.08Z"></path><path class="cls-2" d="M635.17,147l.61-1.61,131.59,7.22.78,1.25-30.64,73.9-1.4.36ZM766,154.31l-127.49-7,97.8,78.59Z"></path><path class="cls-2" d="M613.29,192.75l21.62-46.86,1.39-.33,100.94,81.11-.81,1.58L613.86,194Zm22.78-45.05-20.7,44.84,117.29,32.78Z"></path><path class="cls-2" d="M947.29,226.44l.06-1.74L978,217.48l1,.51,9,19.83-1.1,1.24Zm30.4-7L951,225.71l34.59,11Z"></path><polygon class="cls-2" points="977.3 218.37 977.3 212.96 979.06 212.66 988.07 237.89 986.39 238.57 977.3 218.37"></polygon><path class="cls-2" d="M766.44,153.69l.84-1.11L866.42,149l.73,1.48-77.51,93.73-1.58-.37Zm98-2.84-96,3.49,20.95,87.29Z"></path><path class="cls-2" d="M735.84,227l30.64-73.9,1.72.14,21.62,90.12-1.15,1.07L736.4,228.24Zm31.25-70.63-29.2,70.41,49.8,15.45Z"></path><path class="cls-2" d="M947.17,226.39l.67-1.68,39.65,12.62.6.65,1.8,7.2-1.26,1Zm39.29,12.51-26.7-8.49,27.91,13.35Z"></path><path class="cls-2" d="M865.56,150l1.51-.83,81.11,75.71-.22,1.47L886.68,257l-1.29-.64ZM946,225.35l-78.15-72.94L887,254.87Z"></path><path class="cls-2" d="M463.65,255.92l21.63-61.29.84-.6,128-1.8.37,1.74L464.85,257.05Zm23.13-60.09L466,254.59,609.48,194.1Z"></path><path class="cls-2" d="M788.25,243l77.5-93.72,1.59.75L843.91,267.21l-1.25.65-54.08-23.43Zm76.61-89.8-74.45,90,51.94,22.5Z"></path><path class="cls-2" d="M842.13,266.85,865.56,149.7h1.78l19.83,106.34-.67,1.05-43.26,10.81Zm24.29-112.21L844.18,265.81l41.05-10.26Z"></path><path class="cls-2" d="M946.76,226l1.19-1.23,41.45,19.83.44,1.18-14.41,32.45-1.63,0Zm41.07,19.85-38.22-18.28,24.93,48.2Z"></path><path class="cls-2" d="M973.77,277.48,988.19,245l1.72.2,3.6,19.83-.37.9-18,12.62Zm14.88-29-11.9,26.79,14.88-10.42Z"></path><path class="cls-2" d="M974.08,277.11l18-12.62,1.4.52,3.6,14.42-1,1.12-21.62-1.8Zm18-10.38-14.89,10.43L995,278.64Z"></path><path class="cls-2" d="M885.45,256.6l.43-1.19,61.28-30.64,1.17,1.28-43.26,70.3-1.59-.1Zm59.68-28.79-57.67,28.83,17,37.31Z"></path><path class="cls-2" d="M903.53,295.4l43.26-70.3,1.57.06,27,52.27-.57,1.3-70.3,18Zm44-68-41.24,67,67-17.18Z"></path><path class="cls-2" d="M842.63,267.85l.17-1.7,43.26-10.81,1,.51,18,39.65-1.2,1.19Zm43.14-10.57-40.07,10L902.46,294Z"></path><path class="cls-2" d="M735.85,227.75l1.09-1.23,52.27,16.22.59,1.16L770,299.78l-1.68.07Zm51.93,16.44-49.46-15.35L769,297.05Z"></path><path class="cls-2" d="M768.27,299.17l19.82-55.87,1.21-.53,54.08,23.43v1.66l-73.9,32.44Zm21.2-54.35-18.8,53L840.76,267Z"></path><path class="cls-2" d="M974,278.51l.69-1.56,21.63,1.8.83.82,1.8,19.83-1.51.74Zm21.42,2L977.15,279l19.77,18.25Z"></path><path class="cls-2" d="M842.39,267.68l1-1.47,61.29,28.84.45,1.17-9,21.63-1.46.3Zm60.74,28.64-55.55-26.14L895,315.93Z"></path><path class="cls-2" d="M768.75,298.65l73.9-32.45,1,.18,52.27,50.47-.76,1.54L769,300.37Zm74.08-30.55L772.39,299l120.26,17.18Z"></path><path class="cls-2" d="M613.39,193.68l1-1.42,122.57,34.25.62,1.15-28.85,90.12-1.58.26ZM735.52,228,616.44,194.72,707.5,315.56Z"></path><path class="cls-2" d="M707,317.22l28.84-90.12,1.69-.09,32.44,72.1-.57,1.24-61.28,18Zm29.84-87.32-27.6,86.25,58.66-17.25Z"></path><path class="cls-2" d="M973.77,278.22l1.44-1,23.44,21.63.29.67v30.64l-1.74.37Zm23.36,21.65-19.9-18.36,19.9,44.38Z"></path><path class="cls-2" d="M904,296.72l.09-1.73,70.29-18,1.06.51,23.43,52.27L997.72,331Zm70.1-17.8L907.35,296l89,32.51Z"></path><path class="cls-2" d="M894.46,317.15l9-21.63,1.14-.5,93.73,34.25-.42,1.75L895.18,318.4ZM904.8,297l-8.22,19.73,93.72,11.51Z"></path><path class="cls-2" d="M613.24,193.39l1.59-.8L708.55,317l-.22,1.3L661.46,348.9l-1.36-.5Zm93.29,123.88L616.44,197.74l45,149Z"></path><path class="cls-2" d="M458.22,275.81,463.63,256l1.65-.23,55.87,91.92-1.46,1.06-61.29-72.1Zm6.6-17.32-4.73,17.33,53.59,63.05Z"></path><path class="cls-2" d="M463.73,256.69l.42-1.3L613.76,192.3l1.12,1.3-93.73,155h-1.54Zm148.16-61.64-146.07,61.6,54.56,89.75Z"></path><path class="cls-2" d="M519.61,347.68l93.72-155,1.64.21,46.87,155-.87,1.17H520.38Zm94.22-152.34L522,347.24H659.75Z"></path><path class="cls-2" d="M458.19,344.54V276.05l1.59-.59,61.29,72.1-.74,1.49L459,345.44Zm1.81-66v65.18l58.32,3.42Z"></path><path class="cls-2" d="M895,318.34l.43-1.74,102.74,12.62.79,1-3.61,25.23-1.22.72Zm102,12.57L902.55,319.3l91.14,34.81Z"></path><path class="cls-2" d="M894.86,318.3l.75-1.64,99.14,37.85.57,1-1.8,14.41-1.33.69ZM993.44,356l-85.29-32.57,83.74,45Z"></path><path class="cls-2" d="M458.2,344.66l.95-1,61.28,3.61.42,1.67L465,383.16l-1.37-.64Zm59.25,4.22-57.3-3.37,5.05,35.39Z"></path><path class="cls-2" d="M463.64,382.67l.39-1.05,55.88-34.25,1,1.5-54.07,39.66-1.39-.45Zm38.61-22.35-36.66,22.46,1.18,3.55Z"></path><path class="cls-2" d="M894.73,318.21l1-1.51L993.05,369l.44,1-5.4,19.83-1.43.47Zm96.83,52-87.46-47L986.7,388Z"></path><path class="cls-2" d="M707.05,318l.53-1.33,61.28-18,1.15,1-18,91.93-1.67.28Zm60.89-17.19L709.2,318l41.47,70.84Z"></path><path class="cls-2" d="M660.47,347.39l46.87-30.65,1.27.3L751.88,391l-1.18,1.27L660.58,349Zm47.06-28.61L662.81,348l86,41.29Z"></path><path class="cls-2" d="M768.21,299.52l1-.94,126.17,18,.43,1.6L775.08,411.94l-1.46-.67Zm124.84,18.57-123-17.56,5.27,108.92Z"></path><path class="cls-2" d="M750.21,391.23l18-91.93,1.79.14,5.41,111.75-1.49.73-23.43-19.83ZM768.57,307l-16.48,84.1,21.43,18.13Z"></path><path class="cls-2" d="M465.45,388.1l.32-1,54.08-39.66,1.3,1.21-43.26,70.29-1.62-.17Zm51.74-36.49-49.81,36.52,10,28.22Z"></path><path class="cls-2" d="M894.38,317.52l1.47-.73,91.92,72.1-.28,1.57L897.37,419.3l-1.18-.85Zm90.93,71.74-89.08-69.87L898,417.2Z"></path><path class="cls-2" d="M774,410.51l120.77-93.72,1.45.69L898,418.42l-1,.92-122.57-7.21Zm120.45-91.19L777,410.47l119.19,7Z"></path><path class="cls-2" d="M519.69,348.73l.69-1.49H661l.7,1.47-68.49,84.72h-1.39Zm139.38.32H522.34l70.12,82.39Z"></path><path class="cls-2" d="M634.87,432.6l25.23-84.71,1.26-.56,90.13,43.26-.09,1.67L636,433.71Zm26.66-83.18-24.42,82,111.65-40.12Z"></path><path class="cls-2" d="M591.77,432.29l68.5-84.72,1.57.83L636.6,433.12l-.87.64H592.48Zm67-80L594.37,432h40.69Z"></path><path class="cls-2" d="M476.3,418.81l.05-.85,43.26-70.29,1.62.79L487,438.59l-1.67.05Zm39.84-62-38,61.73,7.91,17.41Z"></path><path class="cls-2" d="M485.29,437.94l34.25-90.12,1.53-.26,72.1,84.71-.65,1.49-106.34,5.41Zm35.39-88-33.21,87.39,103.13-5.24Z"></path><path class="cls-2" d="M774.1,412l.48-1.7,122.57,7.21.36,1.71-55.88,28.84h-.85Zm119.64,7.13-115.2-6.78,62.69,33.88Z"></path><path class="cls-2" d="M840.8,446.47l55.88-28.84,1.2,1.26-7.21,12.62-.5.41L841.5,448.14Zm54-25.83L852,442.73l37.27-12.42Z"></path><path class="cls-2" d="M896.71,419.25l.11-1.68,90.12-28.83,1.11,1.21-25.23,59.48-1.22.47Zm88.9-28.19L899.56,418.6l62,29.26Z"></path><path class="cls-2" d="M889.1,430.61,896.31,418l1.29-.31,59.47,39.66-.84,1.59-66.69-27Zm8.3-10.88-6.22,10.88,57.5,23.3Z"></path><path class="cls-2" d="M896.59,419.19l.89-1.57,64.89,30.64.39,1.29-5.41,9-1.28.28Zm64.1,30.28-52.86-25,48.46,32.3Z"></path><polygon class="cls-2" points="955.79 457.63 961.21 448.61 962.82 449.42 959.22 458.43 958.38 459 956.57 459 955.79 457.63"></polygon><path class="cls-2" d="M755.64,474.07l18-63.09,1.3-.55,66.69,36.05-.16,1.66-84.71,27Zm19.45-61.51-17.25,60.38,81.07-25.88Z"></path><path class="cls-2" d="M750.19,391.46l1.49-.75,23.43,19.83.29.94-18,63.08-1.77-.18Zm23.3,20.08-21.35-18.07,4.93,75.58Z"></path><path class="cls-2" d="M635.43,432l115.36-41.46,1.21.79,5.41,82.91-1.2.92L635.44,433.71Zm114.84-39.35L638.46,432.84,755.52,473Z"></path><polygon class="cls-2" points="935.99 488.24 955.81 457.6 956.57 457.19 958.38 457.19 959.11 458.62 937.49 489.26 935.99 488.24"></polygon><path class="cls-2" d="M889.18,431.63l1-1.41,66.69,27,.42,1.33-19.82,30.65-1.47.07Zm66,26.89-62.41-25.3,43.85,54Z"></path><path class="cls-2" d="M889.08,431.47l1.5-1,46.87,57.68,0,1.16-10.81,12.61-1.49-.17Zm46.49,57.25-40.93-50.38,31.48,61.4Z"></path><path class="cls-2" d="M836.7,504.9l3.61-57.68.62-.8,48.66-16.22,1,1.38-52.27,73.9Zm5.38-57-3.37,53.89,48.84-69Z"></path><path class="cls-2" d="M836.87,504.43l52.27-73.9,1.55.11,36,70.3-.77,1.32-88.33,3.6Zm52.89-71.63L839.41,504l85.07-3.47Z"></path><path class="cls-2" d="M485.39,438.79l.7-1.43L592.43,432l.74,1.48-59.48,72.1-1.43,0Zm105.08-4.93-102.66,5.23,45.24,64.38Z"></path><path class="cls-2" d="M532.3,504.38l59.48-72.1,1.44,1.09-54.07,77.51-1.39.12-5.41-5.4Zm46.6-53.64L534.22,504.9l4.06,4.06Z"></path><path class="cls-2" d="M756.09,475.12l.14-1.67,84.71-27,1.16,1.07-14.42,63.08-1.29.61ZM840,448.62l-81.11,25.89L826.18,509Z"></path><path class="cls-2" d="M825.92,510.16l14.41-63.08,1.79.25L838.51,505l-.5.76-10.81,5.4Zm13.7-51.83L828.11,508.7l8.63-4.32Z"></path><path class="cls-2" d="M755.68,474.68l1.24-1.17,70.29,36.05-.25,1.69-50.47,9-1-.53ZM824,509.94l-65.64-33.66,18.51,42.08Z"></path><path class="cls-2" d="M537.66,509.85l54.08-77.51,1.58.84-36.05,93.73-1.45.35L537.8,511ZM589,439.48,539.6,510.23,556.05,525Z"></path><path class="cls-2" d="M837.08,505.69l.49-1.64,88.33-3.6.61,1.6L883.25,538.1l-1.11,0Zm86.22-3.32-83,3.39,42.37,30.5Z"></path><path class="cls-2" d="M826.33,511.14l.07-1.59,10.81-5.4,1,.14,39.66,36.05-1.08,1.44Zm11.13-5.1-8.79,4.4,41,24.92Z"></path><path class="cls-2" d="M837,505.63l1.14-1.41,45.06,32.45,0,1.48-5.41,3.61-1.11-.09Zm44.09,31.74L850,515l27.37,24.88Z"></path><path class="cls-2" d="M775.49,519.71l.68-1.23,50.47-9,1,1.29-29.74,60.39-1.65-.06Zm49.71-8.14-47.61,8.5,19.55,48.46Z"></path><path class="cls-2" d="M796.24,570.35,826,510l1.28-.37,50.47,30.64-.16,1.63L797.37,571.6Zm30.93-58.7-28.3,57.46,76.33-28.3Z"></path><polygon class="cls-2" points="755.67 474.67 757.33 473.95 777.16 519.01 797.89 570.41 796.22 571.1 755.67 474.67"></polygon><path class="cls-2" d="M591.57,432.9l.91-.95h43.25l.87,1.18L598.75,553.9l-1.77-.24Zm42.93.86H593.43l5.13,114.69Z"></path><path class="cls-2" d="M555.58,526.26l36-93.73,1.75.29,5.41,120.76-1.4.8-41.46-27Zm36.19-89-34.24,89L596.9,551.9Z"></path><path class="cls-2" d="M597,553.35l37.85-120.76,1.76.42L615,561l-1.26.68-16.22-7.21Zm35.61-107.57L599,553.13l14.42,6.4Z"></path><path class="cls-2" d="M634.91,433.23,636,432,756.8,473.46l.44,1.38-63.09,88.32-1.56-.16Zm120.15,41.55L637.41,434.39,693.6,560.82Z"></path><path class="cls-2" d="M692.68,562.11l63.09-88.32,1.57.17,40.55,96.44-.9,1.25-103.65-8.11Zm63.62-85.95-61.22,85.7,100.57,7.87Z"></path><polygon class="cls-2" points="613.64 561.61 614.46 560 627.08 565.41 626.73 567.15 623.12 567.15 622.65 567.02 613.64 561.61"></polygon><path class="cls-2" d="M613.22,560.68l21.62-128,1.8.21-9,133.38-1.26.77-12.62-5.41Zm20.39-109.84L615.12,560.28l10.79,4.62Z"></path><path class="cls-2" d="M625.83,566.18l9-133.38,1.73-.31,57.68,129.78-.78,1.27-66.68,3.61Zm10.56-129.62L627.7,565.28l64.35-3.48Z"></path><path class="cls-2" d="M626.22,567l.46-1.65,66.69-3.61.15,1.8-61.28,7.21-.61-.14Zm38.6-1.9L629.5,567l2.86,1.91Z"></path><path class="cls-2" d="M692.58,563l.91-1.25,103.64,8.12,0,1.79-94.62,13.52-1-.55Zm96.24,8-94-7.36L703,583.27Z"></path><path class="cls-2" d="M631.92,570.72,632,569l61.28-7.21,1,1-1.81,21.63-1.11.81Zm60.5-7.06-55.17,6.49,53.55,13Z"></path><path class="cls-3" d="M482.14,204.83l22.36-40.58,1.7.46L504.69,211l-1.14.84-20.85-5.73Zm22.13-36.4-20,36.27,18.64,5.12Z"></path><path class="cls-3" d="M461.7,272.37l10.19-43.93.43-.58,31-17.65,1.2,1.29-41.21,61.58Zm11.86-43.13-9,38.72,36.32-54.28Z"></path><polygon class="cls-3" points="471.9 228.41 472.38 226.67 472.83 226.11 503.37 210.2 504.24 211.78 473.22 229.43 471.9 228.41"></polygon><path class="cls-3" d="M472.42,226.54l9.69-21.64,1.07-.5L504,210.12l.17,1.68-30.53,15.92Zm11-20.19-8.3,18.56,26.19-13.65Z"></path><path class="cls-3" d="M504.57,164.15l14.89-20.22,1-.33,26.08,7.17,0,1.73-41,13.05Zm16-18.64L507.68,163l35.4-11.27Z"></path><path class="cls-3" d="M502.88,211l1.51-46.31.63-.84,41-13,1,1.39-42.48,59.35Zm3.3-45.62L504.79,208l39.15-54.71Z"></path><path class="cls-3" d="M519.58,143.8l59.86-54.58,1.4,1.1-33.78,61.76-1,.44L520,145.35Zm57.07-49.59L522,144l23.81,6.55Z"></path><path class="cls-3" d="M462.18,366.45l.78-1.19,78.42-6.49.77,1.49-58,68.18-1.55-.3Zm77.17-5.69L464.26,367,483.83,426Z"></path><path class="cls-3" d="M457.47,322l1.28-.92,83.08,37.78-.3,1.73-78.42,6.49-1-.81Zm80.45,37.07-78.48-35.69,4.4,41.82Z"></path><path class="cls-3" d="M457.47,321.87l.17-7.42,1.34-.78,82.91,45.21-.81,1.62L458,322.71Zm1.95-5.9-.13,5.34,59.8,27.2Z"></path><polygon class="cls-3" points="461.23 274.07 461.7 272.33 463.25 271.97 542.13 359.07 540.8 360.29 461.44 274.93 461.23 274.07"></polygon><path class="cls-3" d="M457.65,314.39l3.55-40.16,1.56-.53,79.36,85.36-1.1,1.41-82.9-45.21Zm5.17-38L459.5,314,537,356.22Z"></path><path class="cls-3" d="M605.14,138.06l6.76-65.44.46-.69,2.21-1.26,1.35.91-9,66.69Zm8.52-64.79L613,79.79l.89-6.64Z"></path><path class="cls-3" d="M545.47,151.21l33.78-61.76h1.59l26,48.26-.6,1.32-59.78,13.49ZM580,91.79l-32,58.53,56.66-12.79Z"></path><path class="cls-3" d="M579.25,90.32l.38-1.23,32.75-17.18,1.33.9L607,138.24l-1.7.34Zm32.48-16-30.45,16,24.17,44.86Z"></path><path class="cls-3" d="M503.05,210.47l42.48-59.36,1.56.16,37,83.06L583,235.56l-79.48-23.7Zm43-57-40.82,57,76.38,22.78Z"></path><path class="cls-3" d="M545.44,152l.63-1.25,59.78-13.49,1.08,1.09-22.78,96.55-1.71.16Zm59.39-12.66-57.29,12.93L583,231.88Z"></path><path class="cls-3" d="M461.82,272.07,503,210.5l1-.37,79.48,23.7,0,1.73L462.85,273.44Zm42.35-60-39.41,58.89,115.41-36.22Z"></path><path class="cls-3" d="M461.9,273.18l.4-1.47L583,233.84l1.13,1.14-41.8,125-1.53.32Zm119.94-37.09L464.2,273l76.89,84.9Z"></path><path class="cls-3" d="M522.72,492.62l57.41-100.13,1.64.77-42.9,115.32-1.5.31-14.51-15.2Zm53.52-89.71-51.61,90,13,13.67Z"></path><path class="cls-3" d="M507.51,474.47l0-1.17,72.71-81,1.45,1.05L524.29,493.51l-1.49.12Zm68.37-74.57-66.48,74,14,17.52Z"></path><path class="cls-3" d="M487.26,438.9l.38-1.26,92.88-45.51,1.07,1.42-72.71,81-1.45-.16Zm89.87-43.1-87.83,43,19.08,33.53Z"></path><path class="cls-3" d="M482.65,428.21l.52-1.21,97.44-34.91.71,1.66-92.88,45.52-1.23-.46ZM566,399.26l-81.28,29.12,3.81,8.84Z"></path><path class="cls-3" d="M482.79,427.27l58-68.18L542,359l39.46,33.27-.28,1.54-97.44,34.92ZM541.56,361l-55.2,64.91,92.77-33.24Z"></path><path class="cls-3" d="M537.18,508l42.89-115.32,1.72.54L549.64,517.05l-1.44.48L537.46,509Zm38.41-98.09L539.1,508l9.13,7.28Z"></path><path class="cls-3" d="M695.58,47.21l1.14-1,5.22,1.43.66.91L701.44,80l-1.81.08Zm5.18,2-3.22-.89,2.51,20.31Z"></path><path class="cls-3" d="M605.15,138l9-66.69,1-.79,85.51,8.54.39,1.67-94.49,58.16ZM615.8,72.44l-8.6,63.94,90.57-55.76Z"></path><path class="cls-3" d="M614.76,70.59l81.46-24.36,1.16.76,4,32.89-1,1-85.51-8.53Zm81-22.32L619.67,71l79.83,8Z"></path><path class="cls-3" d="M540.6,359.39l41.81-125,1.41-.43L647,283.11l0,1.45L542,360.41ZM583.72,236.2,543.21,357.29,644.9,283.8Z"></path><path class="cls-3" d="M540.87,360.37l.06-1.43,105-75.85,1.31,1.2L581.7,393.41l-1.37.22Zm102.49-73.23L542.93,359.73l37.76,31.84Z"></path><path class="cls-3" d="M699.63,80l1.16-31.46.76-.86,21.51-3.44.9,1.38-22.67,34.9Zm2.94-30.65-1,27.44,19.77-30.44Z"></path><polygon class="cls-3" points="696.24 47.97 696.41 46.2 723.14 44.19 723.34 45.98 701.84 49.43 701.46 49.41 696.24 47.97"></polygon><path class="cls-3" d="M582.39,234.49l22.78-96.55,1.62-.31,69.85,99.57-.77,1.42-92.63-3Zm24.07-94.17L584.4,233.83l89.71,2.92Z"></path><path class="cls-3" d="M582.71,235.41l.58-1.62,92.63,3,.74,1.39-29.49,46.11-1.31.23Zm91.57,3.16L586,235.7l60.17,46.8Z"></path><path class="cls-3" d="M699.77,79.5l22.67-34.9.78-.41,7.43.17.66,1.5-30.1,34.72ZM723.69,46l-15.27,23.5,20.27-23.38Z"></path><path class="cls-3" d="M605.57,137.38l94.49-58.16,1.36.59L714.73,147l-1,1.08-107.8-9ZM699.9,81.44l-91,56,103.86,8.72Z"></path><path class="cls-3" d="M547.88,516.6,580,392.72l1.78.1,21.2,161-1.41.86-53.36-37.1Zm32.75-118.94L549.8,516.44,601,552Z"></path><path class="cls-3" d="M605.3,138.67l1.15-1.33L713.22,191l.3,1.38L676.6,238.28l-1.45,0Zm106.11,53.42L608.85,140.57l67.09,95.64Z"></path><path class="cls-3" d="M605.64,139l.48-1.71,107.8,9.05.83.92-1,44.58-1.31.79ZM712.92,148l-102.28-8.58,101.3,50.88Z"></path><path class="cls-3" d="M699.85,79.4,730,44.67l1.25-.1,27.47,22.49-.39,1.58L700.72,80.87Zm30.89-32.87L703,78.54l53.08-11.28Z"></path><path class="cls-3" d="M730.06,46l.65-1.6,20.07,1.77.78.6L759,67.45l-1.43,1Zm20,1.92-16.57-1.46L756.15,65Z"></path><path class="cls-3" d="M749.85,47.35l.87-1.21,14.87.34.82,1.22-7.47,20.37h-1.7Zm14.43.92L752,48l6.11,17.12Z"></path><path class="cls-3" d="M699.64,80.17l1.55-.8,56.33,60.33-.52,1.52-43,6.88-1-.72ZM755,139.7,702,82.93l12.52,63.24Z"></path><path class="cls-3" d="M699.87,80.61l.47-1.5,57.57-12.24,1.09.9-1.24,72.57-1.56.6Zm57.3-11.73L702.29,80.54,756,138.07Z"></path><path class="cls-3" d="M711.91,191.76l1-44.58.76-.87,43-6.88.82,1.48-44,51.46ZM714.73,148l-1,41.28,40.79-47.66Z"></path><path class="cls-3" d="M645.65,283.34l29.48-46.11,1.28-.26L725,270.89l-.38,1.64-78.11,12.19ZM676.15,239l-27.89,43.62,73.9-11.53Z"></path><path class="cls-3" d="M675.19,237.15l36.92-45.94,1.6.44,11.71,79.85-1.41.88-48.63-33.92Zm37-43.18-35,43.56,46.12,32.16Z"></path><path class="cls-3" d="M757.25,67.45l7.47-20.37,1-.58L785.32,50l.32,1.66L758.57,68.53Zm8.9-19-6.3,17.19,22.84-14.22Z"></path><path class="cls-3" d="M712.13,191.19l44-51.46,1.25-.12L775.88,154l-.09,1.5-62.51,37ZM757,141.57l-39.92,46.64,56.66-33.57Z"></path><path class="cls-3" d="M711.92,191.91l.43-.91,62.51-37,1.3,1.14L725.36,272l-1.73-.23Zm61.46-35L713.8,192.25,725,268.36Z"></path><path class="cls-3" d="M580.14,392.47l65.5-109.11,1.27-.29,79.26,51.67-.17,1.6L581.25,393.78ZM646.7,285.1l-63.63,106L723.71,335.3Z"></path><path class="cls-3" d="M645.92,284.58l.35-1.65,78.12-12.19,1,.88,1.15,63.86-1.4.78Zm77.72-11.89-74.76,11.66,75.85,49.46Z"></path><path class="cls-3" d="M757.62,67l27.06-16.85.72-.11L815,58.15l-.1,1.76-56.62,8.74ZM785.3,51.88l-23,14.31,48.06-7.42Z"></path><path class="cls-3" d="M756,140.31l1.24-72.57.77-.88,56.61-8.74.88,1.42L757.6,140.85Zm3-71.77-1.18,68.88,54.92-77.18Z"></path><path class="cls-3" d="M756.12,139.8,814,58.5l1.58.86-39.39,95.72-1.39.37L756.3,141ZM810.87,66,758.1,140.14l16.84,13.15Z"></path><path class="cls-3" d="M580.59,392.1l144.75-57.44,1.19.57,17.14,53.31-.84,1.18-161.89,4.13Zm144.52-55.4L586,391.91l155.6-4Z"></path><path class="cls-3" d="M601.67,554.69l.21-1.65,103.44-29.53.63,1.69-85.76,40-.84,0Zm93.18-26.31L604.4,554.21l15.46,9.15Z"></path><path class="cls-3" d="M580,393.06l1.55-.74L706.23,523.76l-.41,1.49L602.37,554.78l-1.14-.75ZM703.89,523.92,582.18,395.59l20.71,157.16Z"></path><path class="cls-3" d="M580.26,393.56l.63-1.52,161.89-4.13.9,1.14L706.44,524.62l-1.53.38Zm161.35-3.81-158.63,4,122.14,128.8Z"></path><path class="cls-3" d="M619.43,563.56l85.76-40,1.24,1.11-19.72,58.14-1.09.58-66-18.14ZM704,526.09l-81.61,38.07,62.85,17.26Z"></path><path class="cls-3" d="M774.49,154.4l39.38-95.72,1.2-.49,23.38,10.16.36,1.36-62.76,85.56Zm40.7-94.18-36.2,88,57.7-78.66Z"></path><path class="cls-3" d="M774.6,154.2l62.76-85.55,1.07-.31,13.43,5.55.3,1.47-76.18,80Zm63.8-83.91-54,73.6,65.54-68.83Z"></path><path class="cls-3" d="M685,582.23l19.71-58.14,1.73,0,18.22,63-1,1.15-37.94-4.81Zm20.5-54.83-18.43,54.36,35.47,4.5Z"></path><path class="cls-3" d="M704.7,524.63l1.71-.57,23.92,62.64-.8,1.23-5.69.31-.92-.65Zm23.49,61.56L712.5,545.08l12,41.31Z"></path><path class="cls-3" d="M774.67,154.11l76.19-80L852,74l17.69,10.47.08,1.51-93.88,69.54Zm77-78.24-68.46,71.9,84.36-62.48Z"></path><path class="cls-3" d="M723.62,271.65l1.31-.83,83.87,41.73-.17,1.69L725.9,336.37l-1.13-.85Zm82.23,41.46-80.39-40,1.09,61.22Z"></path><path class="cls-3" d="M724.81,335.78l.63-1.15,82.72-22.14.92,1.47-65.59,75.45-1.54-.32Zm81-20.78-78.95,21.13L743.18,387Z"></path><path class="cls-3" d="M723.69,271.27,774.5,154.38h1.66l58.39,141.28-1,1.23L724.33,272.52ZM775.3,157.06,725.79,271l106.42,23.77Z"></path><path class="cls-3" d="M724.12,272.44l.6-1.69,109.2,24.39.31,1.63-25.32,17.34-.92.06Zm107.37,24-99.9-22.31,76.73,38.18Z"></path><path class="cls-3" d="M704.72,524.7l1.51-.94,56.32,60.33-.59,1.52-32.42,2.32-.9-.58Zm55.22,59.24-51.88-55.56,22,57.69Z"></path><path class="cls-3" d="M774.79,154l93.87-69.54,1.45.69L874,179.7l-1.13.92-97.81-25Zm93.58-67.07-91,67.39,94.79,24.23Z"></path><path class="cls-3" d="M774.49,155.09l1.06-1.23,97.8,25L874,180,834.57,296.31l-1.69.06ZM872,180.38l-95.11-24.32,56.78,137.39Z"></path><path class="cls-3" d="M704.7,524.14l37.24-135.57,1.6-.28,63.55,88.48-.36,1.35L706,525.2Zm38.48-133.26L707,522.73l98-45.79Z"></path><path class="cls-3" d="M742.13,388.22l65.58-75.45,1.59.52,9.41,122.22-1.38.84-75-46.77Zm65.53-72.63-63.47,73,72.58,45.26Z"></path><path class="cls-3" d="M742.07,389.34l1.22-1.3,75,46.78.4,1-11.47,41.72-1.6.29ZM816.76,436l-70.55-44L806,475.23Z"></path><path class="cls-3" d="M704.91,525l1.19-1.35,77.83,56.89-.39,1.63L762,585.6l-.8-.28Zm76.2,55.72-68.34-50,49.45,53Z"></path><path class="cls-3" d="M705,525.11l.15-1.55L806,476.48l1.26,1-23,104-1.41.54Zm100-46.21-97.73,45.65,75.48,55.18Z"></path><path class="cls-3" d="M832.86,295.73l39.42-116.28,1.73.1,13,61.53-.22.81-52.43,54.76Zm40.07-112.57-37,109.29L885.16,241Z"></path><path class="cls-3" d="M872.25,179.93l1.52-.83L884,189.39l.27.59,2.75,51.24-1.79.23Zm10.26,10.5-7.86-7.89,10,47.12Z"></path><path class="cls-3" d="M868.3,85.24l1.46-.75,50.68,40.08.12,1.3-46.74,54.46-1.59-.55Zm50.27,40.17L870.19,87.13l3.75,90.28Z"></path><path class="cls-3" d="M872.49,180.38l0-1.32,54-46.85,1.32,1.23-43.74,57.15-1.36.08Zm48.52-41-46.55,40.39,8.85,8.87Z"></path><path class="cls-3" d="M872.45,179.15l46.74-54.46,1.34,0,7.25,7.61-.06,1.3-54,46.85Zm47.46-52.52L881.83,171l44-38.16Z"></path><polygon class="cls-3" points="919.22 125.91 920.42 124.56 928.15 130.43 928.48 131.39 928 133.13 926.47 133.52 919.22 125.91"></polygon><path class="cls-3" d="M833.06,295.39l52.43-54.75,1.56.59,3.63,88.84-1.37.81-56.06-34.09Zm52.26-52-50.17,52.4,53.65,32.63Z"></path><path class="cls-3" d="M807.88,312.62l25.32-17.35,1,0,56.06,34.08-.66,1.66-81.38-16.74Zm25.87-15.52-23.09,15.81,74.19,15.26Z"></path><path class="cls-3" d="M807.49,313.43l1.09-.95L890,329.22l.56,1.4-72,105.47-1.65-.44Zm80.77,17.29-78.87-16.23L818.52,433Z"></path><polygon class="cls-3" points="926.25 132.65 926.73 130.91 928.31 130.57 952.12 159.55 950.75 160.73 926.45 133.49 926.25 132.65"></polygon><path class="cls-3" d="M882.68,189.48l43.73-57.14,1.39-.05,24.3,27.23-.31,1.43-68,29.91Zm44.5-55.17-40.93,53.48,63.67-28Z"></path><path class="cls-3" d="M883,189.21l68-29.91,1.11.32,9.31,13.77-.57,1.39-77.33,16.14Zm68.07-28-59.42,26.12,67.54-14.1Z"></path><path class="cls-3" d="M882.49,190.08l1.6-.62,57.42,70-1,1.43-54.67-18.75-.61-.8Zm55.6,68-53.65-65.39L887,240.61Z"></path><path class="cls-3" d="M882.69,190.61l.52-1.46L960.54,173l1.07,1.09-19.92,86.12-1.58.37Zm76.84-15.54L885,190.61,940.34,258Z"></path><path class="cls-3" d="M782.52,581.08l23-104,1.62-.32,53.77,76.45-.43,1.37L783.7,582.13ZM806.79,479.5,784.64,579.87,858.7,553.3Z"></path><path class="cls-3" d="M805.61,477.82l1.44-1.1,60.41,72.67-.24,1.36-6.65,3.79-1.19-.27Zm59.77,71.9L820,495.13l40.39,57.43Z"></path><path class="cls-3" d="M885.24,241.3l1.33-.83,57,30.61.24,1.41-53.38,58.23-1.57-.58Zm56.46,30.82-54.59-29.3,3.48,85.06Z"></path><path class="cls-3" d="M885.71,242.07l.72-1.66,54.67,18.75.6.68L944,271.7l-1.31,1ZM940,260.7l-43.64-15,45.52,24.43Z"></path><path class="cls-3" d="M889.11,329.49l53.38-58.23,1.57.7L939.38,323l-.77.81L889.91,331Zm52.9-55-49.84,54.38,45.47-6.7Z"></path><path class="cls-3" d="M805.65,477.88l1.24-1.31,80.83,59.58,0,1.49-20.42,13.09-1.19-.18Zm79.94,59-73.78-54.39L867,548.77Z"></path><path class="cls-3" d="M939.93,259.81l19.92-86.12,1.7-.17,23.3,51.27-.25,1.07-43.22,34.86ZM961,176.7l-18.73,81,40.63-32.77Z"></path><path class="cls-3" d="M939.92,260.19l.4-.94,45.27-28.69L986.7,232l-42.92,40.55-1.51-.48Zm38.71-23.07-36.81,23.33,1.91,9.64Z"></path><path class="cls-3" d="M940.24,259.31l43.22-34.85,1.43.41,2,6.17-.37,1.05-45.27,28.69Zm43.34-32.63-29.83,24.06L985,230.94Z"></path><path class="cls-3" d="M937.58,322.85l4.68-51.06,1.5-.59,50.35,44.68-.5,1.57-55,6.38Zm6.32-49.11-4.42,48.16,51.91-6Z"></path><path class="cls-3" d="M942.53,271.22l42.92-40.55,1.53.58,7.43,85.22-1.5.76-50.35-44.68Zm42.81-38L944.5,271.85l47.91,42.52Z"></path><polygon class="cls-3" points="889.64 329.21 938.35 322.04 993.41 315.65 993.63 317.45 889.89 331 889.64 329.21"></polygon><path class="cls-3" d="M805.48,477.06l11.46-41.72,1.36-.52,106.43,68.49L924,505,806.15,478.18ZM818.36,437l-10.88,39.62L919.42,502Z"></path><path class="cls-3" d="M805.81,478l.74-1.62,117.89,26.77.4,1.57-37.05,32.81-1.14.05Zm116.51,26.53-112-25.42,76.76,56.58Z"></path><path class="cls-3" d="M817.32,436.34l.87-1.58,117.68,54.76.32,1.39-11.25,13.73-1.19.19Zm116.73,54.33L829.45,442l94.6,60.87Z"></path><path class="cls-3" d="M817.07,435.07,889,329.6l1.45-.06,68.45,84.23-.56,1.46L818,436.48Zm72.77-103.45L819.73,434.38l136.8-20.7Z"></path><path class="cls-3" d="M889.07,330.68l.59-1.47,103.73-13.56,1,1.21-35.28,97.78-1.55.27Zm103.08-13L891.5,330.79l66.42,81.73Z"></path><polygon class="cls-3" points="934.78 489.77 943.34 479.04 944.92 479.84 943.96 483.31 943.71 483.73 936.11 490.99 934.78 489.77"></polygon><path class="cls-3" d="M817.43,436.4l.68-1.67,126.23,44,.41,1.42-8.56,10.73-1.09.26ZM942.54,480,834.6,442.4l100.62,46.82Z"></path><path class="cls-3" d="M817.52,436.44l.16-1.75L958.1,413.44l1,1.09-14.18,65.26-1.18.67Zm139.55-21-135.51,20.5,121.82,42.48Z"></path><polygon class="cls-3" points="942.21 482.83 943.17 479.36 943.45 478.92 948.36 474.66 949.67 475.89 943.81 483.62 942.21 482.83"></polygon><path class="cls-3" d="M943.16,479.41l14.19-65.26,1.78.32-9.28,61-.3.54-4.91,4.27ZM953,442.56l-7.51,34.57,2.6-2.26Z"></path><path class="cls-3" d="M957.38,414l35.28-97.79,1.75.43-12,94.82-.79.78-23.25,3Zm34.2-89.46-32,88.68,21.08-2.69Z"></path><path class="cls-3" d="M948.06,475.2l9.28-61,1.2-.71L978.93,421l.48,1.29-29.67,53.54ZM959,415.57l-8.35,54.92,26.7-48.2Z"></path><path class="cls-3" d="M957.92,415.19l.2-1.75,23.25-3,1,1.13L979.49,422l-1.19.61Zm22.32-2.75L962,414.76l16,5.86Z"></path><polygon class="cls-4" points="869.2 85.2 814.71 59.02 750.7 47.04 657.36 54.35 615.02 71.46 554.63 108.42 502.35 164.29 473.25 226.91 459.09 276.05 459.09 344.54 483.48 427.86 538.02 508.27 531.48 425.19 512.17 311.76 548.37 224.88 567.68 140.41 635.74 146.27 685.93 84.91 757.64 94.51 869.2 85.2"></polygon><polygon class="cls-5" points="981.72 216.72 953.97 163 910.08 114.9 831.15 64.54 787.04 52.71 716.57 45.87 641.19 59.01 580.25 91.49 539.37 122.2 498.13 176.89 621.19 91.66 707.72 79.27 757.64 94.51 847.14 91.67 916 156.98 981.72 216.72"></polygon><polygon class="cls-6" points="903.14 112.66 869.2 85.2 813.71 59.86 747.48 47.5 695.54 49.53 649.34 57.59 605.09 75.25 667.83 68.01 742.65 63.19 795.74 70.43 842.8 83.7 903.14 112.66"></polygon></g></g></svg>