<svg xmlns="http://www.w3.org/2000/svg" viewBox="0 0 26.72 19.66"><defs><style>.cls-1{fill:#356ab2;}.cls-2{fill:#1a1e36;}</style></defs><g id="Livello_2" data-name="Livello 2"><g id="Livello_1-2" data-name="Livello 1"><path class="cls-1" d="M19.89,5.74a8.33,8.33,0,0,1,.58,10.16A8.52,8.52,0,1,1,15.88,3c.31.1,1,0,.83.65s-.65.46-1.16.31A7.5,7.5,0,0,0,9.71,17.68a2.5,2.5,0,0,0,.42.16c.1-.28.22-.55.29-.83.55-2.13.15-1.85,2.39-1.87h.95c2.08,0,2.11,0,2.73,2,.23.77.55.55,1,.27A7.5,7.5,0,0,0,19.73,7.16C19.35,6.56,19.15,6.13,19.89,5.74Z"/><path class="cls-1" d="M13.26,12.8a1.51,1.51,0,0,1-1.5-1.48,1.45,1.45,0,0,1,1.43-1.7,1.6,1.6,0,0,0,1.4-.85c1-1.4,2.1-2.78,3.17-4.16.22-.29.42-.77.92-.37s.1.7-.12,1L15.25,9.59a1.24,1.24,0,0,0-.3,1.25A1.57,1.57,0,0,1,13.26,12.8Z"/><path class="cls-1" d="M4.8,6.3c-.63,0-1.23-.3-1.3-.87-.13-1.18-1-1.68-1.78-2.33-.28-.25-.77-.49-.44-.94s.77-.12,1.09.16C3.13,3,3.78,3.65,5,3.39c.84-.17,1.36.64,1.32,1.47A1.42,1.42,0,0,1,4.8,6.3Z"/><path class="cls-1" d="M21.86,6.3a1.4,1.4,0,0,1-1.49-1.47c0-.83.5-1.62,1.35-1.44,1.18.24,1.81-.4,2.54-1,.33-.27.68-.73,1.1-.28s-.1.76-.41,1c-.76.64-1.6,1.18-1.77,2.33C23.1,6,22.5,6.28,21.86,6.3Z"/><path class="cls-1" d="M26.72,5.42a5.6,5.6,0,0,1-3.22,5.09c-.22.1-.6.64-.86.06s-.07-.8.48-1a3.52,3.52,0,0,0,1.49-1.16,4.35,4.35,0,0,0,.87-4c-.15-.56-.1-1,.41-1.14s.47.51.57.82A10.23,10.23,0,0,1,26.72,5.42Z"/><path class="cls-1" d="M4,10.83C.82,9.62-.71,6.66.32,3.79c.08-.22,0-.79.53-.54.26.13.59.33.45.83A4.37,4.37,0,0,0,3.74,9.63C4.31,9.92,4.11,10.31,4,10.83Z"/><path class="cls-1" d="M16.69,2.35A5.44,5.44,0,0,1,23.8.71c.24.14.72.21.51.63a.65.65,0,0,1-1,.27,4.32,4.32,0,0,0-5.44.87C17.36,3,17.07,2.62,16.69,2.35Z"/><path class="cls-1" d="M10,2.35c-.47.5-.83.44-1.35-.05a4.25,4.25,0,0,0-5.05-.79c-.51.24-1,.36-1.19-.19s.44-.57.74-.73A5.36,5.36,0,0,1,10,2.35Z"/><path class="cls-1" d="M13.78,5.86c-.11.46.31,1.4-.5,1.41s-.47-1-.58-1.51a2.57,2.57,0,0,1,0-.48c0-.4,0-.89.49-.92s.57.51.59.94C13.79,5.46,13.78,5.62,13.78,5.86Z"/><path class="cls-1" d="M18.82,11.52c-.53-.17-1.45.32-1.46-.55s.9-.49,1.41-.49,1.42-.37,1.45.46S19.3,11.33,18.82,11.52Z"/><path class="cls-1" d="M8,11.48a7.08,7.08,0,0,1-.94,0,.51.51,0,0,1-.47-.58c0-.3.26-.39.49-.42a3.85,3.85,0,0,1,.83,0c.47,0,1.24-.25,1.27.46S8.41,11.39,8,11.48Z"/><path class="cls-2" d="M13.15,18.66c-.08,0-.38.07-.55,0-.44-.3-1.51.27-1.35-.81.13-.81.1-2,1.56-1.67a6.22,6.22,0,0,0,1.67,0,.76.76,0,0,1,.93.63C15.91,18.37,15.58,18.68,13.15,18.66Z"/><path class="cls-2" d="M14,11.13c-.07.36-.2.61-.58.65a.52.52,0,0,1-.64-.51.57.57,0,0,1,.58-.7C13.77,10.56,13.91,10.86,14,11.13Z"/><path class="cls-2" d="M4.32,4.84c.06-.28.19-.5.52-.5a.43.43,0,0,1,.45.44.44.44,0,0,1-.37.51C4.6,5.34,4.41,5.14,4.32,4.84Z"/><path class="cls-2" d="M22.4,4.78c-.11.36-.3.56-.61.51a.43.43,0,0,1-.37-.51.43.43,0,0,1,.44-.44C22.22,4.32,22.28,4.61,22.4,4.78Z"/></g></g></svg>