<svg xmlns="http://www.w3.org/2000/svg" viewBox="0 0 133.87 147.63"><defs><style>.cls-1{fill:#356ab2;}.cls-2{fill:#1a1e36;}</style></defs><g id="Livello_2" data-name="Livello 2"><g id="Livello_1-2" data-name="Livello 1"><path class="cls-1" d="M67.25,105.64q-15.7,0-31.41,0c-.66,0-.94-.11-.88-.85.16-2.12.23-4.24.4-6.35,0-.62-.13-.73-.7-.73-3.32,0-6.64,0-10,0-.69,0-.86-.18-.82-.84.19-3.5.59-7,1-10.45a34.51,34.51,0,0,1,1-6.55c1.28-4.13,3.7-7.2,8-8.6,2.69-.87,5.35-1.85,8-2.86.74-.29,1-.1,1.31.55,1,2,2,4,3,6,.25.49.47.6,1,.4,2.62-1,5.28-1.87,7.9-2.85.68-.25,1-.23,1.36.48,2.84,5.38,5.75,10.72,8.62,16.08a1.36,1.36,0,0,0,1.21.78c1.8.27,2.7-.46,3.52-2.07,2.54-5,5.3-10,8-14.93.28-.52.52-.63,1.08-.42,2.63,1,5.28,1.88,7.91,2.86.65.25,1,.2,1.28-.48,1-2,2.08-4,3.09-6,.25-.5.5-.6,1-.41,2.92,1,5.86,2,8.77,3.08a10.55,10.55,0,0,1,5.69,4.44,18,18,0,0,1,2.2,6.19,118.52,118.52,0,0,1,1.41,13.55c0,.12,0,.24,0,.35.1.56.48,1.33.25,1.62s-1.11.13-1.69.13c-3,0-6,0-9,0-.6,0-.69.15-.64.75.19,2.08.25,4.17.42,6.26.06.75-.17.93-.92.93Q83,105.62,67.25,105.64Z"/><path class="cls-1" d="M51.94,42.2a13.39,13.39,0,0,1,6.81,1.92,1.11,1.11,0,0,0,1.2,0,15.31,15.31,0,0,1,14.12,0,1.09,1.09,0,0,0,1.2,0c4.7-2.7,9.45-2.68,14,.25a12.57,12.57,0,0,1,5.89,12.69,13.27,13.27,0,0,1-16.71,11.3,1.23,1.23,0,0,0-1.34.29,15.21,15.21,0,0,1-20.13,0,1.16,1.16,0,0,0-1.26-.28A13.32,13.32,0,1,1,51.94,42.2Z"/><path class="cls-1" d="M132.64,42.17a8.72,8.72,0,1,1-17.41-.51,8.1,8.1,0,0,1,2-5.15c.5-.54.42-.86,0-1.4A61.64,61.64,0,0,0,89.35,14.48,51.85,51.85,0,0,0,83,12.56c-.6-.14-.62-.37-.47-.84a20.15,20.15,0,0,0,.53-2c.11-.63.36-.71,1-.55a65.39,65.39,0,0,1,25,12.7,67.39,67.39,0,0,1,11.22,11.55c.23.31.35.66,1,.45A8.65,8.65,0,0,1,132.64,42.17Z"/><path class="cls-1" d="M3.58,74.67A59.35,59.35,0,0,0,5.89,91.19c.14.45.19.76-.44.86a11.47,11.47,0,0,0-2,.57c-.47.17-.61,0-.73-.41a70.52,70.52,0,0,1-2-9.64,63.42,63.42,0,0,1-.6-13.14A67.62,67.62,0,0,1,4.77,49.1a1.29,1.29,0,0,0-.31-1.73,8.57,8.57,0,0,1-1.32-11,9,9,0,0,1,11-3.25,9.17,9.17,0,0,1,5.39,8.39,8.74,8.74,0,0,1-6.83,8.09,10.08,10.08,0,0,1-3.75.11c-.52-.08-.66.08-.82.48a63.8,63.8,0,0,0-3.95,15.3A68.25,68.25,0,0,0,3.58,74.67Z"/><path class="cls-1" d="M133.87,73.52a66.39,66.39,0,0,1-5.12,25.94.91.91,0,0,0,.17,1.22c2.78,2.72,3.15,6,1.9,9.5a8.13,8.13,0,0,1-7.86,5.61,8.69,8.69,0,0,1-9-7.5,8.78,8.78,0,0,1,6.15-9.54,10.66,10.66,0,0,1,4.35-.22c.54.06.65-.1.81-.5a63.65,63.65,0,0,0,4.47-16.71,62.18,62.18,0,0,0-1.41-22.86c-.12-.5-.06-.77.49-.87a7.72,7.72,0,0,0,1.73-.45c.89-.39,1.12,0,1.33.8A64.33,64.33,0,0,1,133.87,73.52Z"/><path class="cls-1" d="M67,17.56A8.73,8.73,0,0,1,59,11.75c-.23-.6-.47-.71-1.09-.62a63.09,63.09,0,0,0-35.76,18c-.35.34-.55.42-.9,0a13.87,13.87,0,0,0-1.58-1.58c-.45-.38-.35-.59,0-1a66.44,66.44,0,0,1,21.7-14.44A63.18,63.18,0,0,1,57.53,7.79a1,1,0,0,0,1.08-1,8.53,8.53,0,0,1,10-6.72,8.69,8.69,0,0,1,7.24,9.07A8.77,8.77,0,0,1,67,17.56Z"/><path class="cls-1" d="M19,106a8.77,8.77,0,0,1-2.15,5.77c-.32.36-.34.56,0,1a63.6,63.6,0,0,0,32,21.85c.64.19.8.41.56,1s-.28,2-.77,2.19c-.71.33-1.67-.32-2.51-.59a65.86,65.86,0,0,1-29.76-19.93c-.77-.88-1.5-1.79-2.22-2.71a.78.78,0,0,0-1-.3,8.9,8.9,0,0,1-11.64-8.65A7.78,7.78,0,0,1,6,98.14a8.37,8.37,0,0,1,9.29.63A8.83,8.83,0,0,1,19,106Z"/><path class="cls-1" d="M58.24,138.61a8.69,8.69,0,0,1,7.08-8.41A8.56,8.56,0,0,1,75,135.43c.36.93.7,1.13,1.7,1A63.8,63.8,0,0,0,104,125.25a58.58,58.58,0,0,0,7.4-6.22c.44-.44.73-.53,1.1,0a1.8,1.8,0,0,0,.19.2c.46.53,1.39,1,1.35,1.56s-.86,1-1.36,1.46a65.79,65.79,0,0,1-36.05,17.51c-.82.12-1.28.3-1.49,1.29a8.45,8.45,0,0,1-7.77,6.57,8.77,8.77,0,0,1-8.52-5.78A9,9,0,0,1,58.24,138.61Z"/><path class="cls-2" d="M66.93,102c-9.21,0-18.42,0-27.63,0-.84,0-1-.24-.91-1,.3-3.6.69-7.19,1.19-10.77A17.56,17.56,0,0,1,41.28,84a9.43,9.43,0,0,1,4.91-4.38c2.5-.95,5-1.86,7.52-2.83.54-.21.76-.11,1,.39,2.75,5.2,5.53,10.37,8.27,15.56a1.21,1.21,0,0,0,1.3.77c1.76,0,3.52,0,5.29,0a1.18,1.18,0,0,0,1.23-.73c2.72-5.17,5.49-10.31,8.22-15.48.3-.58.56-.74,1.21-.49,2.32.85,4.68,1.61,7,2.44A9.14,9.14,0,0,1,92.62,84c1.38,2.8,1.62,5.77,1.94,8.76.3,2.76.53,5.53.85,8.29.08.74,0,1-.85,1C85.35,102,76.14,102,66.93,102Z"/><path class="cls-2" d="M31.44,93.89c-1.16,0-2.33,0-3.49,0-.51,0-.64-.12-.61-.66.2-3.58.6-7.14,1.13-10.68.62-4,2.65-7.1,6.76-8.44,1.78-.58,3.53-1.25,5.28-1.93.43-.16.62-.1.83.31.64,1.28,1.31,2.54,2,3.8.18.34.13.48-.2.69-4.37,2.65-6.29,6.73-6.79,11.65-.17,1.6-.45,3.19-.63,4.79-.06.52-.35.46-.68.46Z"/><path class="cls-2" d="M102.59,94.34c-1.13,0-2.27,0-3.41,0-.61,0-.79-.16-.85-.77a51.22,51.22,0,0,0-.93-7.11c-1-3.75-2.78-7-6.23-9-.31-.18-.42-.31-.22-.68.7-1.28,1.36-2.58,2-3.88.16-.31.3-.44.68-.29,2.16.86,4.35,1.63,6.49,2.54,3.43,1.46,5,4.36,5.47,7.83s.85,6.87,1.11,10.33c.07.9-.13,1.13-1,1.06C104.69,94.28,103.64,94.34,102.59,94.34Z"/><path class="cls-2" d="M67,69.05A11.74,11.74,0,1,1,78.77,57.3,11.82,11.82,0,0,1,67,69.05Z"/><path class="cls-2" d="M79.69,65.25a17,17,0,0,0,1.94-5A14.23,14.23,0,0,0,78,47.61c-.54-.61-.51-.79.21-1.13,5-2.42,11.28.39,13.11,6a9.37,9.37,0,0,1-2.21,9.79A9.88,9.88,0,0,1,79.69,65.25Z"/><path class="cls-2" d="M56.55,46.71c-4.88,5.61-5.85,11.63-2.26,18.21a9.66,9.66,0,0,1-10.36-3.78A9.93,9.93,0,0,1,44.66,49,9.68,9.68,0,0,1,56.55,46.71Z"/><path class="cls-2" d="M124.13,47.32a5.22,5.22,0,0,1-5.39-5.27,5.31,5.31,0,1,1,10.62.08A5.35,5.35,0,0,1,124.13,47.32Z"/><path class="cls-2" d="M5.31,41a5.47,5.47,0,1,1,10.93.14,5.33,5.33,0,0,1-5.4,5.19A5.53,5.53,0,0,1,5.31,41Z"/><path class="cls-2" d="M122.84,112.49a5.35,5.35,0,0,1-5.32-5.45,5.47,5.47,0,1,1,5.32,5.45Z"/><path class="cls-2" d="M67.05,14.18a5.49,5.49,0,0,1-5.44-5.4A5.38,5.38,0,0,1,67,3.35a5.55,5.55,0,0,1,5.47,5.39A5.51,5.51,0,0,1,67.05,14.18Z"/><path class="cls-2" d="M10.73,111.39A5.66,5.66,0,0,1,5,106a5.43,5.43,0,0,1,5.37-5.35,5.34,5.34,0,0,1,5.42,5.28A5.27,5.27,0,0,1,10.73,111.39Z"/><path class="cls-2" d="M67,144.45a5.41,5.41,0,1,1,.21-10.81A5.41,5.41,0,0,1,67,144.45Z"/></g></g></svg>