<svg xmlns="http://www.w3.org/2000/svg" viewBox="0 0 133.19 125.77"><defs><style>.cls-1{fill:#0075ff;}</style></defs><g id="Livello_2" data-name="Livello 2"><g id="Livello_1-2" data-name="Livello 1"><path class="cls-1" d="M103.59,37H8.08c-4.32,0-7.44-2.5-8-6.38a7.46,7.46,0,0,1,7-8.42c.63-.05,1.27,0,1.9,0h94.65c0-.72-.61-.87-1-1.16-3.19-2.48-6.41-4.93-9.6-7.41-3.63-2.82-4.38-7.29-1.81-10.68s7.17-3.88,10.89-1Q116,12.61,129.76,23.37c4.61,3.6,4.57,9.05-.08,12.54q-14.25,10.74-28.52,21.43c-2.62,2-5.44,2.54-8.41.94a7,7,0,0,1-3.92-6.82,7.2,7.2,0,0,1,3.11-5.72l10.25-7.69Z"/><path class="cls-1" d="M29.05,103.58c4.11,3.18,7.88,6,11.58,9a7.31,7.31,0,0,1,2.29,8.58,7.49,7.49,0,0,1-7.26,4.63,7.58,7.58,0,0,1-4.28-1.68c-9.44-7.33-18.91-14.64-28.32-22a7.27,7.27,0,0,1,.08-11.89q14.64-11.08,29.38-22a7.38,7.38,0,1,1,8.88,11.8c-3.7,2.86-7.47,5.63-11.3,8.5.65.55,1.36.31,2,.31h92.77c4.24,0,7.07,1.93,8.06,5.45a7.38,7.38,0,0,1-6.64,9.36c-.64,0-1.28,0-1.91,0H29.05Z"/></g></g></svg>